<?xml version="1.0" standalone="no"?>
<svg xmlns="http://www.w3.org/2000/svg" width="1120" height="569.2375030517578"><g transform="translate(70,20)"><g class="x axis" transform="translate(0,400)" fill="none" font-size="10" font-family="sans-serif" text-anchor="middle"><path class="domain" stroke="#000" d="M0.5,6V0.5H1000.5V6"/><g class="tick" opacity="1" transform="translate(36.42384105960258,0)"><line stroke="#000" y2="6"/><text fill="#000" y="9" dy="-0.5em" dx="-.8em" style="text-anchor: end;" transform="rotate(-90)">B101 (n=15)</text></g><g class="tick" opacity="1" transform="translate(102.6490066225165,0)"><line stroke="#000" y2="6"/><text fill="#000" y="9" dy="-0.5em" dx="-.8em" style="text-anchor: end;" transform="rotate(-90)">B103 (n=15)</text></g><g class="tick" opacity="1" transform="translate(168.8741721854304,0)"><line stroke="#000" y2="6"/><text fill="#000" y="9" dy="-0.5em" dx="-.8em" style="text-anchor: end;" transform="rotate(-90)">B105 (n=16)</text></g><g class="tick" opacity="1" transform="translate(235.09933774834434,0)"><line stroke="#000" y2="6"/><text fill="#000" y="9" dy="-0.5em" dx="-.8em" style="text-anchor: end;" transform="rotate(-90)">B107 (n=12)</text></g><g class="tick" opacity="1" transform="translate(301.32450331125824,0)"><line stroke="#000" y2="6"/><text fill="#000" y="9" dy="-0.5em" dx="-.8em" style="text-anchor: end;" transform="rotate(-90)">B109 (n=14)</text></g><g class="tick" opacity="1" transform="translate(367.54966887417214,0)"><line stroke="#000" y2="6"/><text fill="#000" y="9" dy="-0.5em" dx="-.8em" style="text-anchor: end;" transform="rotate(-90)">B141 (n=8)</text></g><g class="tick" opacity="1" transform="translate(433.7748344370861,0)"><line stroke="#000" y2="6"/><text fill="#000" y="9" dy="-0.5em" dx="-.8em" style="text-anchor: end;" transform="rotate(-90)">B143 (n=11)</text></g><g class="tick" opacity="1" transform="translate(500,0)"><line stroke="#000" y2="6"/><text fill="#000" y="9" dy="-0.5em" dx="-.8em" style="text-anchor: end;" transform="rotate(-90)">B145 (n=10)</text></g><g class="tick" opacity="1" transform="translate(566.2251655629138,0)"><line stroke="#000" y2="6"/><text fill="#000" y="9" dy="-0.5em" dx="-.8em" style="text-anchor: end;" transform="rotate(-90)">B147 (n=7)</text></g><g class="tick" opacity="1" transform="translate(632.4503311258279,0)"><line stroke="#000" y2="6"/><text fill="#000" y="9" dy="-0.5em" dx="-.8em" style="text-anchor: end;" transform="rotate(-90)">B159 (n=7)</text></g><g class="tick" opacity="1" transform="translate(698.6754966887418,0)"><line stroke="#000" y2="6"/><text fill="#000" y="9" dy="-0.5em" dx="-.8em" style="text-anchor: end;" transform="rotate(-90)">BBT2014-00029 (n=1)</text></g><g class="tick" opacity="1" transform="translate(764.9006622516556,0)"><line stroke="#000" y2="6"/><text fill="#000" y="9" dy="-0.5em" dx="-.8em" style="text-anchor: end;" transform="rotate(-90)">BBT2014-00035 (n=1)</text></g><g class="tick" opacity="1" transform="translate(831.1258278145697,0)"><line stroke="#000" y2="6"/><text fill="#000" y="9" dy="-0.5em" dx="-.8em" style="text-anchor: end;" transform="rotate(-90)">BBT2014-00036 (n=1)</text></g><g class="tick" opacity="1" transform="translate(897.3509933774835,0)"><line stroke="#000" y2="6"/><text fill="#000" y="9" dy="-0.5em" dx="-.8em" style="text-anchor: end;" transform="rotate(-90)">BBT2014-00037 (n=1)</text></g><g class="tick" opacity="1" transform="translate(963.5761589403974,0)"><line stroke="#000" y2="6"/><text fill="#000" y="9" dy="-0.5em" dx="-.8em" style="text-anchor: end;" transform="rotate(-90)">BBT2014-00038 (n=1)</text></g></g><g class="y axis" fill="none" font-size="10" font-family="sans-serif" text-anchor="end"><path class="domain" stroke="#000" d="M-6,400.5H0.5V0.5H-6"/><g class="tick" opacity="1" transform="translate(0,400.5)"><line stroke="#000" x2="-6"/><text fill="#000" x="-9" dy="0.32em">3</text></g><g class="tick" opacity="1" transform="translate(0,360.5)"><line stroke="#000" x2="-6"/><text fill="#000" x="-9" dy="0.32em">4</text></g><g class="tick" opacity="1" transform="translate(0,320.5)"><line stroke="#000" x2="-6"/><text fill="#000" x="-9" dy="0.32em">5</text></g><g class="tick" opacity="1" transform="translate(0,280.5)"><line stroke="#000" x2="-6"/><text fill="#000" x="-9" dy="0.32em">6</text></g><g class="tick" opacity="1" transform="translate(0,240.5)"><line stroke="#000" x2="-6"/><text fill="#000" x="-9" dy="0.32em">7</text></g><g class="tick" opacity="1" transform="translate(0,200.5)"><line stroke="#000" x2="-6"/><text fill="#000" x="-9" dy="0.32em">8</text></g><g class="tick" opacity="1" transform="translate(0,160.5)"><line stroke="#000" x2="-6"/><text fill="#000" x="-9" dy="0.32em">9</text></g><g class="tick" opacity="1" transform="translate(0,120.5)"><line stroke="#000" x2="-6"/><text fill="#000" x="-9" dy="0.32em">10</text></g><g class="tick" opacity="1" transform="translate(0,80.5)"><line stroke="#000" x2="-6"/><text fill="#000" x="-9" dy="0.32em">11</text></g><g class="tick" opacity="1" transform="translate(0,40.5)"><line stroke="#000" x2="-6"/><text fill="#000" x="-9" dy="0.32em">12</text></g><g class="tick" opacity="1" transform="translate(0,0.5)"><line stroke="#000" x2="-6"/><text fill="#000" x="-9" dy="0.32em">13</text></g></g><text class="x label" text-anchor="middle" transform="translate(500,539.2375030517578)" style="font: 12px sans-serif;">subject-id</text><text class="y label" text-anchor="middle" transform="translate(-50,200)rotate(-90)" style="font: 12px sans-serif;">faith_pd</text><line class="center" x1="36.42384105960258" y1="354.606461644" x2="36.42384105960258" y2="36.095976519999965" stroke-dasharray="2,2" stroke-width="1" stroke="black"/><line class="center" x1="102.6490066225165" y1="273.438659776" x2="102.6490066225165" y2="95.73820175999998" stroke-dasharray="2,2" stroke-width="1" stroke="black"/><line class="center" x1="168.8741721854304" y1="340.083656404" x2="168.8741721854304" y2="103.208146828" stroke-dasharray="2,2" stroke-width="1" stroke="black"/><line class="center" x1="235.09933774834434" y1="215.082632568" x2="235.09933774834434" y2="107.53443676800003" stroke-dasharray="2,2" stroke-width="1" stroke="black"/><line class="center" x1="301.32450331125824" y1="220.488964484" x2="301.32450331125824" y2="59.17356738800004" stroke-dasharray="2,2" stroke-width="1" stroke="black"/><line class="center" x1="367.54966887417214" y1="218.530744408" x2="367.54966887417214" y2="170.4670572" stroke-dasharray="2,2" stroke-width="1" stroke="black"/><line class="center" x1="433.7748344370861" y1="340.609519276" x2="433.7748344370861" y2="36.05608601199998" stroke-dasharray="2,2" stroke-width="1" stroke="black"/><line class="center" x1="500" y1="255.329198916" x2="500" y2="138.22527641599993" stroke-dasharray="2,2" stroke-width="1" stroke="black"/><line class="center" x1="566.2251655629138" y1="179.186553064" x2="566.2251655629138" y2="87.26183001200002" stroke-dasharray="2,2" stroke-width="1" stroke="black"/><line class="center" x1="632.4503311258279" y1="293.027394608" x2="632.4503311258279" y2="187.780017612" stroke-dasharray="2,2" stroke-width="1" stroke="black"/><line class="center" x1="698.6754966887418" y1="214.675439688" x2="698.6754966887418" y2="214.675439688" stroke-dasharray="2,2" stroke-width="1" stroke="black"/><line class="center" x1="764.9006622516556" y1="204.080956664" x2="764.9006622516556" y2="204.080956664" stroke-dasharray="2,2" stroke-width="1" stroke="black"/><line class="center" x1="831.1258278145697" y1="171.03077630000004" x2="831.1258278145697" y2="171.03077630000004" stroke-dasharray="2,2" stroke-width="1" stroke="black"/><line class="center" x1="897.3509933774835" y1="236.539866144" x2="897.3509933774835" y2="236.539866144" stroke-dasharray="2,2" stroke-width="1" stroke="black"/><line class="center" x1="963.5761589403974" y1="237.915254804" x2="963.5761589403974" y2="237.915254804" stroke-dasharray="2,2" stroke-width="1" stroke="black"/><g class="outlier" transform="translate(36.42384105960258,0)"/><g class="outlier" transform="translate(102.6490066225165,0)"/><g class="outlier" transform="translate(168.8741721854304,0)"/><g class="outlier" transform="translate(235.09933774834434,0)"><circle r="4" stroke-width="1" stroke="black" stroke-opacity="0.3" fill="black" fill-opacity="0.33" cx="0" cy="391.223969528"/></g><g class="outlier" transform="translate(301.32450331125824,0)"/><g class="outlier" transform="translate(367.54966887417214,0)"/><g class="outlier" transform="translate(433.7748344370861,0)"/><g class="outlier" transform="translate(500,0)"><circle r="4" stroke-width="1" stroke="black" stroke-opacity="0.3" fill="black" fill-opacity="0.33" cx="0" cy="289.761458924"/><circle r="4" stroke-width="1" stroke="black" stroke-opacity="0.3" fill="black" fill-opacity="0.33" cx="0" cy="57.87664851599999"/></g><g class="outlier" transform="translate(566.2251655629138,0)"/><g class="outlier" transform="translate(632.4503311258279,0)"/><g class="outlier" transform="translate(698.6754966887418,0)"/><g class="outlier" transform="translate(764.9006622516556,0)"/><g class="outlier" transform="translate(831.1258278145697,0)"/><g class="outlier" transform="translate(897.3509933774835,0)"/><g class="outlier" transform="translate(963.5761589403974,0)"/><rect class="box" x="6.622516556291316" y="110.033995312" width="59.60264900662253" height="142.066450922" fill="white" stroke-width="1" stroke="black"/><rect class="box" x="72.84768211920523" y="150.71884374" width="59.60264900662253" height="55.42037915999995" fill="white" stroke-width="1" stroke="black"/><rect class="box" x="139.07284768211915" y="120.10815238099991" width="59.60264900662253" height="98.11203824100008" fill="white" stroke-width="1" stroke="black"/><rect class="box" x="205.29801324503308" y="122.80297470099993" width="59.60264900662253" height="74.63164225400004" fill="white" stroke-width="1" stroke="black"/><rect class="box" x="271.523178807947" y="125.36069190800004" width="59.60264900662253" height="64.09656317999992" fill="white" stroke-width="1" stroke="black"/><rect class="box" x="337.7483443708609" y="182.30514705600004" width="59.60264900662253" height="16.725078036999975" fill="white" stroke-width="1" stroke="black"/><rect class="box" x="403.97350993377484" y="94.93512264200001" width="59.60264900662253" height="180.554250664" fill="white" stroke-width="1" stroke="black"/><rect class="box" x="470.19867549668874" y="150.66102814299995" width="59.60264900662253" height="46.25458929800007" fill="white" stroke-width="1" stroke="black"/><rect class="box" x="536.4238410596026" y="129.88318687199995" width="59.60264900662253" height="30.447409718000074" fill="white" stroke-width="1" stroke="black"/><rect class="box" x="602.6490066225166" y="208.51861899999994" width="59.60264900662253" height="60.25323804600009" fill="white" stroke-width="1" stroke="black"/><rect class="box" x="668.8741721854304" y="214.675439688" width="59.60264900662253" height="0" fill="white" stroke-width="1" stroke="black"/><rect class="box" x="735.0993377483444" y="204.080956664" width="59.60264900662253" height="0" fill="white" stroke-width="1" stroke="black"/><rect class="box" x="801.3245033112584" y="171.03077630000004" width="59.60264900662253" height="0" fill="white" stroke-width="1" stroke="black"/><rect class="box" x="867.5496688741722" y="236.539866144" width="59.60264900662253" height="0" fill="white" stroke-width="1" stroke="black"/><rect class="box" x="933.7748344370862" y="237.915254804" width="59.60264900662253" height="0" fill="white" stroke-width="1" stroke="black"/><line class="median" x1="6.622516556291316" y1="163.20495952800002" x2="66.22516556291384" y2="163.20495952800002" stroke-width="1" stroke="black"/><line class="median" x1="72.84768211920523" y1="186.540692916" x2="132.45033112582774" y2="186.540692916" stroke-width="1" stroke="black"/><line class="median" x1="139.07284768211915" y1="170.21790811599996" x2="198.67549668874167" y2="170.21790811599996" stroke-width="1" stroke="black"/><line class="median" x1="205.29801324503308" y1="164.066319608" x2="264.9006622516556" y2="164.066319608" stroke-width="1" stroke="black"/><line class="median" x1="271.523178807947" y1="150.77387863599995" x2="331.1258278145695" y2="150.77387863599995" stroke-width="1" stroke="black"/><line class="median" x1="337.7483443708609" y1="195.130360406" x2="397.3509933774834" y2="195.130360406" stroke-width="1" stroke="black"/><line class="median" x1="403.97350993377484" y1="183.621500728" x2="463.57615894039736" y2="183.621500728" stroke-width="1" stroke="black"/><line class="median" x1="470.19867549668874" y1="168.30274031599996" x2="529.8013245033112" y2="168.30274031599996" stroke-width="1" stroke="black"/><line class="median" x1="536.4238410596026" y1="148.51196283599995" x2="596.0264900662252" y2="148.51196283599995" stroke-width="1" stroke="black"/><line class="median" x1="602.6490066225166" y1="260.024136612" x2="662.2516556291391" y2="260.024136612" stroke-width="1" stroke="black"/><line class="median" x1="668.8741721854304" y1="214.675439688" x2="728.476821192053" y2="214.675439688" stroke-width="1" stroke="black"/><line class="median" x1="735.0993377483444" y1="204.080956664" x2="794.7019867549669" y2="204.080956664" stroke-width="1" stroke="black"/><line class="median" x1="801.3245033112584" y1="171.03077630000004" x2="860.9271523178809" y2="171.03077630000004" stroke-width="1" stroke="black"/><line class="median" x1="867.5496688741722" y1="236.539866144" x2="927.1523178807947" y2="236.539866144" stroke-width="1" stroke="black"/><line class="median" x1="933.7748344370862" y1="237.915254804" x2="993.3774834437087" y2="237.915254804" stroke-width="1" stroke="black"/><g class="whisker" transform="translate(21.523178807946948,0)"><line class="median" x1="0" y1="354.606461644" x2="29.801324503311264" y2="354.606461644" stroke-width="1" stroke="black"/><line class="median" x1="0" y1="36.095976519999965" x2="29.801324503311264" y2="36.095976519999965" stroke-width="1" stroke="black"/></g><g class="whisker" transform="translate(87.74834437086086,0)"><line class="median" x1="0" y1="273.438659776" x2="29.801324503311264" y2="273.438659776" stroke-width="1" stroke="black"/><line class="median" x1="0" y1="95.73820175999998" x2="29.801324503311264" y2="95.73820175999998" stroke-width="1" stroke="black"/></g><g class="whisker" transform="translate(153.97350993377478,0)"><line class="median" x1="0" y1="340.083656404" x2="29.801324503311264" y2="340.083656404" stroke-width="1" stroke="black"/><line class="median" x1="0" y1="103.208146828" x2="29.801324503311264" y2="103.208146828" stroke-width="1" stroke="black"/></g><g class="whisker" transform="translate(220.1986754966887,0)"><line class="median" x1="0" y1="215.082632568" x2="29.801324503311264" y2="215.082632568" stroke-width="1" stroke="black"/><line class="median" x1="0" y1="107.53443676800003" x2="29.801324503311264" y2="107.53443676800003" stroke-width="1" stroke="black"/></g><g class="whisker" transform="translate(286.42384105960264,0)"><line class="median" x1="0" y1="220.488964484" x2="29.801324503311264" y2="220.488964484" stroke-width="1" stroke="black"/><line class="median" x1="0" y1="59.17356738800004" x2="29.801324503311264" y2="59.17356738800004" stroke-width="1" stroke="black"/></g><g class="whisker" transform="translate(352.6490066225165,0)"><line class="median" x1="0" y1="218.530744408" x2="29.801324503311264" y2="218.530744408" stroke-width="1" stroke="black"/><line class="median" x1="0" y1="170.4670572" x2="29.801324503311264" y2="170.4670572" stroke-width="1" stroke="black"/></g><g class="whisker" transform="translate(418.87417218543044,0)"><line class="median" x1="0" y1="340.609519276" x2="29.801324503311264" y2="340.609519276" stroke-width="1" stroke="black"/><line class="median" x1="0" y1="36.05608601199998" x2="29.801324503311264" y2="36.05608601199998" stroke-width="1" stroke="black"/></g><g class="whisker" transform="translate(485.0993377483444,0)"><line class="median" x1="0" y1="255.329198916" x2="29.801324503311264" y2="255.329198916" stroke-width="1" stroke="black"/><line class="median" x1="0" y1="138.22527641599993" x2="29.801324503311264" y2="138.22527641599993" stroke-width="1" stroke="black"/></g><g class="whisker" transform="translate(551.3245033112582,0)"><line class="median" x1="0" y1="179.186553064" x2="29.801324503311264" y2="179.186553064" stroke-width="1" stroke="black"/><line class="median" x1="0" y1="87.26183001200002" x2="29.801324503311264" y2="87.26183001200002" stroke-width="1" stroke="black"/></g><g class="whisker" transform="translate(617.5496688741722,0)"><line class="median" x1="0" y1="293.027394608" x2="29.801324503311264" y2="293.027394608" stroke-width="1" stroke="black"/><line class="median" x1="0" y1="187.780017612" x2="29.801324503311264" y2="187.780017612" stroke-width="1" stroke="black"/></g><g class="whisker" transform="translate(683.774834437086,0)"><line class="median" x1="0" y1="214.675439688" x2="29.801324503311264" y2="214.675439688" stroke-width="1" stroke="black"/><line class="median" x1="0" y1="214.675439688" x2="29.801324503311264" y2="214.675439688" stroke-width="1" stroke="black"/></g><g class="whisker" transform="translate(750,0)"><line class="median" x1="0" y1="204.080956664" x2="29.801324503311264" y2="204.080956664" stroke-width="1" stroke="black"/><line class="median" x1="0" y1="204.080956664" x2="29.801324503311264" y2="204.080956664" stroke-width="1" stroke="black"/></g><g class="whisker" transform="translate(816.225165562914,0)"><line class="median" x1="0" y1="171.03077630000004" x2="29.801324503311264" y2="171.03077630000004" stroke-width="1" stroke="black"/><line class="median" x1="0" y1="171.03077630000004" x2="29.801324503311264" y2="171.03077630000004" stroke-width="1" stroke="black"/></g><g class="whisker" transform="translate(882.4503311258278,0)"><line class="median" x1="0" y1="236.539866144" x2="29.801324503311264" y2="236.539866144" stroke-width="1" stroke="black"/><line class="median" x1="0" y1="236.539866144" x2="29.801324503311264" y2="236.539866144" stroke-width="1" stroke="black"/></g><g class="whisker" transform="translate(948.6754966887418,0)"><line class="median" x1="0" y1="237.915254804" x2="29.801324503311264" y2="237.915254804" stroke-width="1" stroke="black"/><line class="median" x1="0" y1="237.915254804" x2="29.801324503311264" y2="237.915254804" stroke-width="1" stroke="black"/></g></g></svg>