<?xml version="1.0" standalone="no"?>
<svg xmlns="http://www.w3.org/2000/svg" width="1120" height="569.2375030517578"><g transform="translate(70,20)"><g class="x axis" transform="translate(0,400)" fill="none" font-size="10" font-family="sans-serif" text-anchor="middle"><path class="domain" stroke="#000" d="M0.5,6V0.5H1000.5V6"/><g class="tick" opacity="1" transform="translate(36.42384105960258,0)"><line stroke="#000" y2="6"/><text fill="#000" y="9" dy="-0.5em" dx="-.8em" style="text-anchor: end;" transform="rotate(-90)">B101 (n=15)</text></g><g class="tick" opacity="1" transform="translate(102.6490066225165,0)"><line stroke="#000" y2="6"/><text fill="#000" y="9" dy="-0.5em" dx="-.8em" style="text-anchor: end;" transform="rotate(-90)">B103 (n=15)</text></g><g class="tick" opacity="1" transform="translate(168.8741721854304,0)"><line stroke="#000" y2="6"/><text fill="#000" y="9" dy="-0.5em" dx="-.8em" style="text-anchor: end;" transform="rotate(-90)">B105 (n=16)</text></g><g class="tick" opacity="1" transform="translate(235.09933774834434,0)"><line stroke="#000" y2="6"/><text fill="#000" y="9" dy="-0.5em" dx="-.8em" style="text-anchor: end;" transform="rotate(-90)">B107 (n=12)</text></g><g class="tick" opacity="1" transform="translate(301.32450331125824,0)"><line stroke="#000" y2="6"/><text fill="#000" y="9" dy="-0.5em" dx="-.8em" style="text-anchor: end;" transform="rotate(-90)">B109 (n=14)</text></g><g class="tick" opacity="1" transform="translate(367.54966887417214,0)"><line stroke="#000" y2="6"/><text fill="#000" y="9" dy="-0.5em" dx="-.8em" style="text-anchor: end;" transform="rotate(-90)">B141 (n=8)</text></g><g class="tick" opacity="1" transform="translate(433.7748344370861,0)"><line stroke="#000" y2="6"/><text fill="#000" y="9" dy="-0.5em" dx="-.8em" style="text-anchor: end;" transform="rotate(-90)">B143 (n=11)</text></g><g class="tick" opacity="1" transform="translate(500,0)"><line stroke="#000" y2="6"/><text fill="#000" y="9" dy="-0.5em" dx="-.8em" style="text-anchor: end;" transform="rotate(-90)">B145 (n=10)</text></g><g class="tick" opacity="1" transform="translate(566.2251655629138,0)"><line stroke="#000" y2="6"/><text fill="#000" y="9" dy="-0.5em" dx="-.8em" style="text-anchor: end;" transform="rotate(-90)">B147 (n=7)</text></g><g class="tick" opacity="1" transform="translate(632.4503311258279,0)"><line stroke="#000" y2="6"/><text fill="#000" y="9" dy="-0.5em" dx="-.8em" style="text-anchor: end;" transform="rotate(-90)">B159 (n=7)</text></g><g class="tick" opacity="1" transform="translate(698.6754966887418,0)"><line stroke="#000" y2="6"/><text fill="#000" y="9" dy="-0.5em" dx="-.8em" style="text-anchor: end;" transform="rotate(-90)">BBT2014-00029 (n=1)</text></g><g class="tick" opacity="1" transform="translate(764.9006622516556,0)"><line stroke="#000" y2="6"/><text fill="#000" y="9" dy="-0.5em" dx="-.8em" style="text-anchor: end;" transform="rotate(-90)">BBT2014-00035 (n=1)</text></g><g class="tick" opacity="1" transform="translate(831.1258278145697,0)"><line stroke="#000" y2="6"/><text fill="#000" y="9" dy="-0.5em" dx="-.8em" style="text-anchor: end;" transform="rotate(-90)">BBT2014-00036 (n=1)</text></g><g class="tick" opacity="1" transform="translate(897.3509933774835,0)"><line stroke="#000" y2="6"/><text fill="#000" y="9" dy="-0.5em" dx="-.8em" style="text-anchor: end;" transform="rotate(-90)">BBT2014-00037 (n=1)</text></g><g class="tick" opacity="1" transform="translate(963.5761589403974,0)"><line stroke="#000" y2="6"/><text fill="#000" y="9" dy="-0.5em" dx="-.8em" style="text-anchor: end;" transform="rotate(-90)">BBT2014-00038 (n=1)</text></g></g><g class="y axis" fill="none" font-size="10" font-family="sans-serif" text-anchor="end"><path class="domain" stroke="#000" d="M-6,400.5H0.5V0.5H-6"/><g class="tick" opacity="1" transform="translate(0,400.5)"><line stroke="#000" x2="-6"/><text fill="#000" x="-9" dy="0.32em">0.30</text></g><g class="tick" opacity="1" transform="translate(0,369.7307692307692)"><line stroke="#000" x2="-6"/><text fill="#000" x="-9" dy="0.32em">0.35</text></g><g class="tick" opacity="1" transform="translate(0,338.96153846153845)"><line stroke="#000" x2="-6"/><text fill="#000" x="-9" dy="0.32em">0.40</text></g><g class="tick" opacity="1" transform="translate(0,308.1923076923077)"><line stroke="#000" x2="-6"/><text fill="#000" x="-9" dy="0.32em">0.45</text></g><g class="tick" opacity="1" transform="translate(0,277.4230769230769)"><line stroke="#000" x2="-6"/><text fill="#000" x="-9" dy="0.32em">0.50</text></g><g class="tick" opacity="1" transform="translate(0,246.6538461538461)"><line stroke="#000" x2="-6"/><text fill="#000" x="-9" dy="0.32em">0.55</text></g><g class="tick" opacity="1" transform="translate(0,215.8846153846154)"><line stroke="#000" x2="-6"/><text fill="#000" x="-9" dy="0.32em">0.60</text></g><g class="tick" opacity="1" transform="translate(0,185.11538461538458)"><line stroke="#000" x2="-6"/><text fill="#000" x="-9" dy="0.32em">0.65</text></g><g class="tick" opacity="1" transform="translate(0,154.34615384615384)"><line stroke="#000" x2="-6"/><text fill="#000" x="-9" dy="0.32em">0.70</text></g><g class="tick" opacity="1" transform="translate(0,123.57692307692304)"><line stroke="#000" x2="-6"/><text fill="#000" x="-9" dy="0.32em">0.75</text></g><g class="tick" opacity="1" transform="translate(0,92.80769230769226)"><line stroke="#000" x2="-6"/><text fill="#000" x="-9" dy="0.32em">0.80</text></g><g class="tick" opacity="1" transform="translate(0,62.03846153846143)"><line stroke="#000" x2="-6"/><text fill="#000" x="-9" dy="0.32em">0.85</text></g><g class="tick" opacity="1" transform="translate(0,31.26923076923066)"><line stroke="#000" x2="-6"/><text fill="#000" x="-9" dy="0.32em">0.90</text></g><g class="tick" opacity="1" transform="translate(0,0.5)"><line stroke="#000" x2="-6"/><text fill="#000" x="-9" dy="0.32em">0.95</text></g></g><text class="x label" text-anchor="middle" transform="translate(500,539.2375030517578)" style="font: 12px sans-serif;">subject-id</text><text class="y label" text-anchor="middle" transform="translate(-50,200)rotate(-90)" style="font: 12px sans-serif;">pielou_evenness</text><g class="outlier" transform="translate(36.42384105960258,0)"/><line class="center" x1="36.42384105960258" y1="313.71715563076924" x2="36.42384105960258" y2="49.23908738461529" stroke-dasharray="2,2" stroke-width="1" stroke="black"/><line class="center" x1="102.6490066225165" y1="327.0824446153846" x2="102.6490066225165" y2="74.36669710769223" stroke-dasharray="2,2" stroke-width="1" stroke="black"/><line class="center" x1="168.8741721854304" y1="280.89933821538455" x2="168.8741721854304" y2="47.0527583384615" stroke-dasharray="2,2" stroke-width="1" stroke="black"/><line class="center" x1="235.09933774834434" y1="242.0553962461538" x2="235.09933774834434" y2="67.86531538461531" stroke-dasharray="2,2" stroke-width="1" stroke="black"/><line class="center" x1="301.32450331125824" y1="245.9100860307692" x2="301.32450331125824" y2="38.70542209230757" stroke-dasharray="2,2" stroke-width="1" stroke="black"/><line class="center" x1="367.54966887417214" y1="88.6854383384615" x2="367.54966887417214" y2="70.42744615384612" stroke-dasharray="2,2" stroke-width="1" stroke="black"/><line class="center" x1="433.7748344370861" y1="377.60670621538463" x2="433.7748344370861" y2="45.61331279999996" stroke-dasharray="2,2" stroke-width="1" stroke="black"/><line class="center" x1="500" y1="275.95378418461536" x2="500" y2="80.46332203076918" stroke-dasharray="2,2" stroke-width="1" stroke="black"/><line class="center" x1="566.2251655629138" y1="151.04524443076915" x2="566.2251655629138" y2="32.051790523076875" stroke-dasharray="2,2" stroke-width="1" stroke="black"/><line class="center" x1="632.4503311258279" y1="223.20620529230771" x2="632.4503311258279" y2="102.052837476923" stroke-dasharray="2,2" stroke-width="1" stroke="black"/><line class="center" x1="698.6754966887418" y1="71.8597064" x2="698.6754966887418" y2="71.8597064" stroke-dasharray="2,2" stroke-width="1" stroke="black"/><line class="center" x1="764.9006622516556" y1="239.99634541538458" x2="764.9006622516556" y2="239.99634541538458" stroke-dasharray="2,2" stroke-width="1" stroke="black"/><line class="center" x1="831.1258278145697" y1="28.877885969230704" x2="831.1258278145697" y2="28.877885969230704" stroke-dasharray="2,2" stroke-width="1" stroke="black"/><line class="center" x1="897.3509933774835" y1="130.51849606153843" x2="897.3509933774835" y2="130.51849606153843" stroke-dasharray="2,2" stroke-width="1" stroke="black"/><line class="center" x1="963.5761589403974" y1="128.38094726153838" x2="963.5761589403974" y2="128.38094726153838" stroke-dasharray="2,2" stroke-width="1" stroke="black"/><g class="outlier" transform="translate(102.6490066225165,0)"/><g class="outlier" transform="translate(168.8741721854304,0)"/><g class="outlier" transform="translate(235.09933774834434,0)"/><g class="outlier" transform="translate(301.32450331125824,0)"/><g class="outlier" transform="translate(367.54966887417214,0)"><circle r="4" stroke-width="1" stroke="black" stroke-opacity="0.3" fill="black" fill-opacity="0.33" cx="0" cy="98.84201206153841"/><circle r="4" stroke-width="1" stroke="black" stroke-opacity="0.3" fill="black" fill-opacity="0.33" cx="0" cy="61.411573169230735"/></g><g class="outlier" transform="translate(433.7748344370861,0)"/><g class="outlier" transform="translate(500,0)"/><g class="outlier" transform="translate(566.2251655629138,0)"><circle r="4" stroke-width="1" stroke="black" stroke-opacity="0.3" fill="black" fill-opacity="0.33" cx="0" cy="218.0654037538461"/></g><g class="outlier" transform="translate(632.4503311258279,0)"/><g class="outlier" transform="translate(698.6754966887418,0)"/><g class="outlier" transform="translate(764.9006622516556,0)"/><g class="outlier" transform="translate(831.1258278145697,0)"/><g class="outlier" transform="translate(897.3509933774835,0)"/><g class="outlier" transform="translate(963.5761589403974,0)"/><rect class="box" x="6.622516556291316" y="81.71592566153845" width="59.60264900662253" height="128.61915692307684" fill="white" stroke-width="1" stroke="black"/><rect class="box" x="72.84768211920523" y="112.18499252307691" width="59.60264900662253" height="131.32531707692303" fill="white" stroke-width="1" stroke="black"/><rect class="box" x="139.07284768211915" y="81.10034866153842" width="59.60264900662253" height="149.1107749692308" fill="white" stroke-width="1" stroke="black"/><rect class="box" x="205.29801324503308" y="83.08233043076916" width="59.60264900662253" height="78.08652313846153" fill="white" stroke-width="1" stroke="black"/><rect class="box" x="271.523178807947" y="79.65498678461529" width="59.60264900662253" height="118.48996558461545" fill="white" stroke-width="1" stroke="black"/><rect class="box" x="337.7483443708609" y="76.16642626153845" width="59.60264900662253" height="8.8625367076923" fill="white" stroke-width="1" stroke="black"/><rect class="box" x="403.97350993377484" y="150.88227378461534" width="59.60264900662253" height="158.44650021538467" fill="white" stroke-width="1" stroke="black"/><rect class="box" x="470.19867549668874" y="103.43426859999994" width="59.60264900662253" height="107.24272167692311" fill="white" stroke-width="1" stroke="black"/><rect class="box" x="536.4238410596026" y="74.34668150769227" width="59.60264900662253" height="54.55513418461538" fill="white" stroke-width="1" stroke="black"/><rect class="box" x="602.6490066225166" y="112.8091310153846" width="59.60264900662253" height="70.57146895384611" fill="white" stroke-width="1" stroke="black"/><rect class="box" x="668.8741721854304" y="71.8597064" width="59.60264900662253" height="0" fill="white" stroke-width="1" stroke="black"/><rect class="box" x="735.0993377483444" y="239.99634541538458" width="59.60264900662253" height="0" fill="white" stroke-width="1" stroke="black"/><rect class="box" x="801.3245033112584" y="28.877885969230704" width="59.60264900662253" height="0" fill="white" stroke-width="1" stroke="black"/><rect class="box" x="867.5496688741722" y="130.51849606153843" width="59.60264900662253" height="0" fill="white" stroke-width="1" stroke="black"/><rect class="box" x="933.7748344370862" y="128.38094726153838" width="59.60264900662253" height="0" fill="white" stroke-width="1" stroke="black"/><line class="median" x1="6.622516556291316" y1="134.24023193846153" x2="66.22516556291384" y2="134.24023193846153" stroke-width="1" stroke="black"/><line class="median" x1="72.84768211920523" y1="154.2025679384615" x2="132.45033112582774" y2="154.2025679384615" stroke-width="1" stroke="black"/><line class="median" x1="139.07284768211915" y1="156.16107132307687" x2="198.67549668874167" y2="156.16107132307687" stroke-width="1" stroke="black"/><line class="median" x1="205.29801324503308" y1="114.57810812307685" x2="264.9006622516556" y2="114.57810812307685" stroke-width="1" stroke="black"/><line class="median" x1="271.523178807947" y1="136.9321442153846" x2="331.1258278145695" y2="136.9321442153846" stroke-width="1" stroke="black"/><line class="median" x1="337.7483443708609" y1="81.49977292307688" x2="397.3509933774834" y2="81.49977292307688" stroke-width="1" stroke="black"/><line class="median" x1="403.97350993377484" y1="233.3650871384615" x2="463.57615894039736" y2="233.3650871384615" stroke-width="1" stroke="black"/><line class="median" x1="470.19867549668874" y1="136.95361184615382" x2="529.8013245033112" y2="136.95361184615382" stroke-width="1" stroke="black"/><line class="median" x1="536.4238410596026" y1="88.06438584615375" x2="596.0264900662252" y2="88.06438584615375" stroke-width="1" stroke="black"/><line class="median" x1="602.6490066225166" y1="150.19232184615385" x2="662.2516556291391" y2="150.19232184615385" stroke-width="1" stroke="black"/><line class="median" x1="668.8741721854304" y1="71.8597064" x2="728.476821192053" y2="71.8597064" stroke-width="1" stroke="black"/><line class="median" x1="735.0993377483444" y1="239.99634541538458" x2="794.7019867549669" y2="239.99634541538458" stroke-width="1" stroke="black"/><line class="median" x1="801.3245033112584" y1="28.877885969230704" x2="860.9271523178809" y2="28.877885969230704" stroke-width="1" stroke="black"/><line class="median" x1="867.5496688741722" y1="130.51849606153843" x2="927.1523178807947" y2="130.51849606153843" stroke-width="1" stroke="black"/><line class="median" x1="933.7748344370862" y1="128.38094726153838" x2="993.3774834437087" y2="128.38094726153838" stroke-width="1" stroke="black"/><g class="whisker" transform="translate(21.523178807946948,0)"><line class="median" x1="0" y1="313.71715563076924" x2="29.801324503311264" y2="313.71715563076924" stroke-width="1" stroke="black"/><line class="median" x1="0" y1="49.23908738461529" x2="29.801324503311264" y2="49.23908738461529" stroke-width="1" stroke="black"/></g><g class="whisker" transform="translate(87.74834437086086,0)"><line class="median" x1="0" y1="327.0824446153846" x2="29.801324503311264" y2="327.0824446153846" stroke-width="1" stroke="black"/><line class="median" x1="0" y1="74.36669710769223" x2="29.801324503311264" y2="74.36669710769223" stroke-width="1" stroke="black"/></g><g class="whisker" transform="translate(153.97350993377478,0)"><line class="median" x1="0" y1="280.89933821538455" x2="29.801324503311264" y2="280.89933821538455" stroke-width="1" stroke="black"/><line class="median" x1="0" y1="47.0527583384615" x2="29.801324503311264" y2="47.0527583384615" stroke-width="1" stroke="black"/></g><g class="whisker" transform="translate(220.1986754966887,0)"><line class="median" x1="0" y1="242.0553962461538" x2="29.801324503311264" y2="242.0553962461538" stroke-width="1" stroke="black"/><line class="median" x1="0" y1="67.86531538461531" x2="29.801324503311264" y2="67.86531538461531" stroke-width="1" stroke="black"/></g><g class="whisker" transform="translate(286.42384105960264,0)"><line class="median" x1="0" y1="245.9100860307692" x2="29.801324503311264" y2="245.9100860307692" stroke-width="1" stroke="black"/><line class="median" x1="0" y1="38.70542209230757" x2="29.801324503311264" y2="38.70542209230757" stroke-width="1" stroke="black"/></g><g class="whisker" transform="translate(352.6490066225165,0)"><line class="median" x1="0" y1="88.6854383384615" x2="29.801324503311264" y2="88.6854383384615" stroke-width="1" stroke="black"/><line class="median" x1="0" y1="70.42744615384612" x2="29.801324503311264" y2="70.42744615384612" stroke-width="1" stroke="black"/></g><g class="whisker" transform="translate(418.87417218543044,0)"><line class="median" x1="0" y1="377.60670621538463" x2="29.801324503311264" y2="377.60670621538463" stroke-width="1" stroke="black"/><line class="median" x1="0" y1="45.61331279999996" x2="29.801324503311264" y2="45.61331279999996" stroke-width="1" stroke="black"/></g><g class="whisker" transform="translate(485.0993377483444,0)"><line class="median" x1="0" y1="275.95378418461536" x2="29.801324503311264" y2="275.95378418461536" stroke-width="1" stroke="black"/><line class="median" x1="0" y1="80.46332203076918" x2="29.801324503311264" y2="80.46332203076918" stroke-width="1" stroke="black"/></g><g class="whisker" transform="translate(551.3245033112582,0)"><line class="median" x1="0" y1="151.04524443076915" x2="29.801324503311264" y2="151.04524443076915" stroke-width="1" stroke="black"/><line class="median" x1="0" y1="32.051790523076875" x2="29.801324503311264" y2="32.051790523076875" stroke-width="1" stroke="black"/></g><g class="whisker" transform="translate(617.5496688741722,0)"><line class="median" x1="0" y1="223.20620529230771" x2="29.801324503311264" y2="223.20620529230771" stroke-width="1" stroke="black"/><line class="median" x1="0" y1="102.052837476923" x2="29.801324503311264" y2="102.052837476923" stroke-width="1" stroke="black"/></g><g class="whisker" transform="translate(683.774834437086,0)"><line class="median" x1="0" y1="71.8597064" x2="29.801324503311264" y2="71.8597064" stroke-width="1" stroke="black"/><line class="median" x1="0" y1="71.8597064" x2="29.801324503311264" y2="71.8597064" stroke-width="1" stroke="black"/></g><g class="whisker" transform="translate(750,0)"><line class="median" x1="0" y1="239.99634541538458" x2="29.801324503311264" y2="239.99634541538458" stroke-width="1" stroke="black"/><line class="median" x1="0" y1="239.99634541538458" x2="29.801324503311264" y2="239.99634541538458" stroke-width="1" stroke="black"/></g><g class="whisker" transform="translate(816.225165562914,0)"><line class="median" x1="0" y1="28.877885969230704" x2="29.801324503311264" y2="28.877885969230704" stroke-width="1" stroke="black"/><line class="median" x1="0" y1="28.877885969230704" x2="29.801324503311264" y2="28.877885969230704" stroke-width="1" stroke="black"/></g><g class="whisker" transform="translate(882.4503311258278,0)"><line class="median" x1="0" y1="130.51849606153843" x2="29.801324503311264" y2="130.51849606153843" stroke-width="1" stroke="black"/><line class="median" x1="0" y1="130.51849606153843" x2="29.801324503311264" y2="130.51849606153843" stroke-width="1" stroke="black"/></g><g class="whisker" transform="translate(948.6754966887418,0)"><line class="median" x1="0" y1="128.38094726153838" x2="29.801324503311264" y2="128.38094726153838" stroke-width="1" stroke="black"/><line class="median" x1="0" y1="128.38094726153838" x2="29.801324503311264" y2="128.38094726153838" stroke-width="1" stroke="black"/></g></g></svg>